<?xml version="1.0" encoding="UTF-8"?>
<svg width="171px" height="223px" viewBox="0 0 171 223" version="1.1" xmlns="http://www.w3.org/2000/svg" xmlns:xlink="http://www.w3.org/1999/xlink">
    <!-- Generator: Sketch 51.2 (57519) - http://www.bohemiancoding.com/sketch -->
    <title>astronaut</title>
    <desc>Created with Sketch.</desc>
    <defs></defs>
    <g id="Page-1" stroke="none" stroke-width="1" fill="none" fill-rule="evenodd">
        <g id="Artboard" transform="translate(-285.000000, -179.000000)" fill-rule="nonzero">
            <g id="astronaut" transform="translate(275.000000, 165.000000)">
                <rect id="Rectangle-path" fill="#B5B5B5" transform="translate(39.025479, 95.363978) rotate(149.950000) translate(-39.025479, -95.363978) " x="35.865479" y="92.203978" width="6.32" height="6.32" rx="3.16"></rect>
                <path d="M101.91,137.18 L71.16,155 C66.441356,157.723266 60.4267293,156.426079 57.25,152 L32.87,118.1 C30.3162817,114.546847 29.3833457,110.079838 30.3014738,105.80159 C31.219602,101.523341 33.9032507,97.8324646 37.69,95.64 L67.8,78.2 L101.91,137.18 Z" id="Shape" fill="#969696"></path>
                <path d="M101.69,136.79 L72.09,153.91 C67.5403394,156.534913 61.7411309,155.275533 58.69,151 L35.41,118.66 C32.9178689,115.17581 32.0105133,110.802249 32.9109381,106.614227 C33.811363,102.426204 36.4360797,98.8120389 40.14,96.66 L68.84,80 L101.69,136.79 Z" id="Shape" fill="#B5B5B5"></path>
                <rect id="Rectangle-path" fill="#B5B5B5" transform="translate(97.324211, 61.649328) rotate(-30.050000) translate(-97.324211, -61.649328) " x="94.1642113" y="58.4893281" width="6.32" height="6.32" rx="3.16"></rect>
                <path d="M101.82,137.23 L132.57,119.44 C137.287071,116.712673 139.1681,110.853379 136.92,105.89 L119.69,67.89 C117.879337,63.9089507 114.471097,60.8781065 110.305786,59.544902 C106.140474,58.2116976 101.605779,58.7002218 97.82,60.89 L67.71,78.26 L101.82,137.23 Z" id="Shape" fill="#969696"></path>
                <path d="M101.21,137.07 L130.81,119.95 C135.33007,117.329371 137.139012,111.716902 135,106.95 L118.54,70.58 C116.767466,66.6671924 113.423065,63.6863305 109.332944,62.3737578 C105.242823,61.0611851 100.788391,61.5393011 97.07,63.69 L68.37,80.29 L101.21,137.07 Z" id="Shape" fill="#B5B5B5"></path>
                <path d="M112.52,155 L111.78,155.43 C111.526301,155.570928 111.346339,155.81512 111.286842,156.09917 C111.227345,156.383219 111.294183,156.679105 111.47,156.91 C115.22,161.91 126.99,185.84 130.47,192.98 C131.021463,194.126285 130.582786,195.503731 129.47,196.12 L111.87,206.3 C110.957516,206.829378 109.806788,206.703771 109.03,205.99 C106.54,203.69 100.73,198.19 93.66,190.49 C84.17,180.17 72.75,160.42 68.74,150.49 C64.73,140.56 64.74,140.49 62.79,131.09 C58.31,136.8 59.64,150.18 60,153.15 C60.0447359,153.53097 60.1896574,153.893273 60.42,154.2 C61.9,156.2 67.68,163.85 69,166.14 C70.52,168.77 69,170.84 67.89,170.3 C65.1646568,168.679581 62.5306648,166.910233 60,165 C59.5910376,164.689963 59.0532412,164.607225 58.57,164.78 C56.79,165.48 59.65,168.01 59.65,168.01 C61.450881,169.391706 63.3491467,170.641621 65.33,171.75 C66.3850615,172.25008 67.1441252,173.216498 67.38,174.36 C67.6084075,175.199684 67.3455542,176.096478 66.7,176.68 C63.01,180 57.35,178.37 54.22,177.06 C52.5825496,176.391622 51.1873694,175.240598 50.22,173.76 C48.4304334,171.047394 47.366535,167.921116 47.13,164.68 C47.3331106,160.909689 46.3919642,157.166018 44.43,153.94 C30.3,126.86 47.74,102.82 49.29,98.28 C58.29,95.1 64.42,87.66 71.36,83.72 L71.15,83.84 C78.07,79.77 86.72,77.65 94,71.4 C98.71,72.33 129.09,69.74 145.52,95.5 C147.348689,98.8125617 150.13779,101.493585 153.52,103.19 C156.212053,105.012244 158.391541,107.494725 159.85,110.4 C160.650683,111.961739 160.9609,113.72893 160.74,115.47 C160.31,118.83 158.9,124.55 154.19,126.09 C153.361838,126.357921 152.453383,126.137573 151.84,125.52 C150.96601,124.744967 150.506826,123.604411 150.6,122.44 C150.626921,120.169749 150.489898,117.900517 150.19,115.65 C150.19,115.65 149.43,111.93 147.94,113.1 C147.546198,113.431269 147.346751,113.939296 147.41,114.45 C147.77,117.91 149.21,123.25 147.97,123.96 C146.73,124.67 145.34,125.48 143.81,122.85 C142.49,120.56 138.7,111.72 137.74,109.46 C137.589542,109.106612 137.347985,108.79949 137.04,108.57 C134.65,106.78 123.71,98.95 116.53,99.99 C123.73,106.36 123.73,106.37 130.38,114.82 C137.03,123.27 148.45,143.02 152.67,156.39 C155.82,166.39 157.67,174.14 158.45,177.44 C158.684495,178.468723 158.222555,179.530375 157.31,180.06 L139.71,190.24 C138.617644,190.878068 137.217567,190.558676 136.51,189.51 C132.06,182.93 117.19,160.8 114.72,155.05 C114.607376,154.78451 114.385618,154.580568 114.111647,154.490522 C113.837675,154.400475 113.538167,154.433092 113.29,154.58 L112.55,155.01" id="Shape" fill="#F2F2F2"></path>
                <g id="Group" transform="translate(28.000000, 68.000000)">
                    <rect id="Rectangle-path" fill="#FFCB39" transform="translate(94.112728, 10.019755) rotate(-66.700000) translate(-94.112728, -10.019755) " x="84.9227281" y="6.29975472" width="18.38" height="7.44"></rect>
                    <rect id="Rectangle-path" fill="#FFCB39" transform="translate(10.691965, 58.313525) rotate(4.170000) translate(-10.691965, -58.313525) " x="1.21696493" y="54.4785254" width="18.95" height="7.67"></rect>
                    <rect id="Rectangle-path" fill="#FFCB39" transform="translate(108.099420, 89.669922) rotate(-37.600000) translate(-108.099420, -89.669922) " x="88.0944197" y="88.0399215" width="40.01" height="3.26"></rect>
                    <rect id="Rectangle-path" fill="#FFCB39" transform="translate(73.285448, 109.715061) rotate(-22.500000) translate(-73.285448, -109.715061) " x="53.2804478" y="108.085061" width="40.01" height="3.26"></rect>
                    <path d="M83.66,87.53 L79.8,89.76 C79.5311572,89.9142902 79.3398895,90.174848 79.2732523,90.4775713 C79.2066151,90.7802945 79.2707941,91.0970828 79.45,91.35 C82.5,95.67 94.87,113.49 103.02,130.27 C103.18272,130.614909 103.512478,130.850927 103.891436,130.893712 C104.270394,130.936498 104.644474,130.779946 104.88,130.48 C106.073034,128.964733 106.670579,127.065392 106.56,125.14 C106.546578,124.973928 106.495264,124.813143 106.41,124.67 L85.16,87.94 C84.8588467,87.412772 84.1874643,87.2292608 83.66,87.53 Z" id="Shape" fill="#DEDFE0" style="mix-blend-mode: multiply;"></path>
                </g>
                <g id="Group-2" transform="translate(63.000000, 90.000000)">
                    <path d="M15.79,37.63 C14.4146451,38.4555798 12.7659734,38.6960499 11.2121026,38.2977179 C9.65823171,37.8993858 8.32856778,36.8954246 7.52,35.51 L1.28,25 C0.45442019,23.6246451 0.213950064,21.9759734 0.612282131,20.4221026 C1.0106142,18.8682317 2.01457545,17.5385678 3.4,16.73 L29.56,1.22 C30.9353549,0.39442019 32.5840266,0.153950064 34.1378974,0.552282131 C35.6917683,0.950614198 37.0214322,1.95457545 37.83,3.34 L44.07,13.89 C44.897956,15.2674336 45.1387103,16.9194449 44.7383204,18.4758904 C44.3379304,20.0323358 43.3298695,21.363094 41.94,22.17 L15.79,37.63 Z" id="Shape" fill="#D3D3D3"></path>
                    <rect id="Rectangle-path" fill="#B5B5B5" transform="translate(15.076540, 25.305387) rotate(-30.600000) translate(-15.076540, -25.305387) " x="8.63654029" y="24.110387" width="12.88" height="2.39" rx="1.19"></rect>
                    <circle id="Oval" fill="#FFCB39" transform="translate(18.975003, 22.987508) rotate(-30.600000) translate(-18.975003, -22.987508) " cx="18.9750033" cy="22.9875076" r="1"></circle>
                    <rect id="Rectangle-path" fill="#B5B5B5" transform="translate(16.770751, 28.170346) rotate(-30.600000) translate(-16.770751, -28.170346) " x="10.3307506" y="26.9753462" width="12.88" height="2.39" rx="1.19"></rect>
                    <circle id="Oval" fill="#FFCB39" transform="translate(14.104310, 29.755155) rotate(-30.600000) translate(-14.104310, -29.755155) " cx="14.1043096" cy="29.7551554" r="1"></circle>
                    <rect id="Rectangle-path" fill="#B5B5B5" transform="translate(18.480051, 31.053913) rotate(-30.600000) translate(-18.480051, -31.053913) " x="12.0400513" y="29.8589128" width="12.88" height="2.39" rx="1.19"></rect>
                    <circle id="Oval" fill="#FFCB39" transform="translate(19.914289, 30.194959) rotate(-30.600000) translate(-19.914289, -30.194959) " cx="19.9142894" cy="30.1949587" r="1"></circle>
                    <rect id="Rectangle-path" fill="#B5B5B5" transform="translate(31.757379, 14.625607) rotate(-30.600000) translate(-31.757379, -14.625607) " x="26.0323787" y="14.1256074" width="11.45" height="1"></rect>
                    <rect id="Rectangle-path" fill="#B5B5B5" transform="translate(32.162733, 15.288688) rotate(-30.600000) translate(-32.162733, -15.288688) " x="26.4377332" y="14.788688" width="11.45" height="1"></rect>
                    <rect id="Rectangle-path" fill="#B5B5B5" transform="translate(32.563178, 15.970376) rotate(-30.600000) translate(-32.563178, -15.970376) " x="26.8381782" y="15.470376" width="11.45" height="1"></rect>
                    <rect id="Rectangle-path" fill="#B5B5B5" transform="translate(32.982800, 16.477750) rotate(-30.668927) translate(-32.982800, -16.477750) " x="27.2586588" y="15.977825" width="11.4482824" height="1"></rect>
                    <rect id="Rectangle-path" fill="#B5B5B5" transform="translate(33.355280, 17.311628) rotate(-30.600000) translate(-33.355280, -17.311628) " x="27.6302799" y="16.8116276" width="11.45" height="1"></rect>
                    <rect id="Rectangle-path" fill="#B5B5B5" transform="translate(33.750634, 17.984708) rotate(-30.600000) translate(-33.750634, -17.984708) " x="28.0256345" y="17.4847082" width="11.45" height="1"></rect>
                    <rect id="Rectangle-path" fill="#B5B5B5" transform="translate(34.179900, 18.474350) rotate(-30.668927) translate(-34.179900, -18.474350) " x="28.4557588" y="17.974425" width="11.4482824" height="1"></rect>
                    <rect id="Rectangle-path" fill="#B5B5B5" transform="translate(34.582100, 19.160250) rotate(-30.668927) translate(-34.582100, -19.160250) " x="28.8579588" y="18.660325" width="11.4482824" height="1"></rect>
                    <rect id="Rectangle-path" fill="#B5B5B5" transform="translate(34.977800, 19.832450) rotate(-30.668927) translate(-34.977800, -19.832450) " x="29.2536588" y="19.332525" width="11.4482824" height="1"></rect>
                    <rect id="Rectangle-path" fill="#B5B5B5" transform="translate(35.373500, 20.494650) rotate(-30.668927) translate(-35.373500, -20.494650) " x="29.6493588" y="19.994725" width="11.4482824" height="1"></rect>
                    <rect id="Rectangle-path" fill="#B5B5B5" transform="translate(35.743890, 21.343809) rotate(-30.600000) translate(-35.743890, -21.343809) " x="30.0188903" y="20.843809" width="11.45" height="1"></rect>
                    <rect id="Rectangle-path" fill="#B5B5B5" transform="translate(36.130637, 22.011980) rotate(-30.600000) translate(-36.130637, -22.011980) " x="30.4056374" y="21.51198" width="11.45" height="1"></rect>
                    <rect id="Rectangle-path" fill="#FFFFFF" transform="translate(19.769896, 14.482209) rotate(-30.600000) translate(-19.769896, -14.482209) " x="3.78489599" y="11.8572088" width="31.97" height="5.25" rx="2.62"></rect>
                </g>
                <rect id="Rectangle-path" fill="#D3D3D3" transform="translate(144.267006, 106.090839) rotate(-32.960000) translate(-144.267006, -106.090839) " x="134.792006" y="104.510839" width="18.95" height="3.16"></rect>
                <rect id="Rectangle-path" fill="#D3D3D3" transform="translate(53.877645, 158.008237) rotate(-25.350000) translate(-53.877645, -158.008237) " x="44.4026447" y="156.428237" width="18.95" height="3.16"></rect>
                <rect id="Rectangle-path" fill="#D3D3D3" transform="translate(107.902084, 147.275420) rotate(-30.120000) translate(-107.902084, -147.275420) " x="70.2270841" y="144.11542" width="75.35" height="6.32"></rect>
                <rect id="Rectangle-path" fill="#B5B5B5" transform="translate(107.706797, 147.395255) rotate(-30.120000) translate(-107.706797, -147.395255) " x="101.391797" y="143.110255" width="12.63" height="8.57" rx="1.32"></rect>
                <circle id="Oval" fill="#FCFCFC" transform="translate(107.708613, 147.388421) rotate(-30.120000) translate(-107.708613, -147.388421) " cx="107.708613" cy="147.388421" r="2.93"></circle>
                <path d="M139.12,192.73 L149.65,209.13 C151.586113,211.687307 154.522557,213.29562 157.72,213.55 C159.172547,213.689864 160.637681,213.619133 162.07,213.34 C164.041938,212.950949 165.934789,212.234369 167.67,211.22 C176.83,205.97 185.32,201.13 176.26,193.72 C174.602549,192.371879 172.676232,191.393378 170.61,190.85 C169.74,190.62 168.88,190.42 168.1,190.24 C165.297526,189.625872 162.893808,187.837652 161.5,185.33 L159.39,181.58 L139.12,192.73 Z" id="Shape" fill="#DEDFE0"></path>
                <rect id="Rectangle-path" fill="#D3D3D3" transform="translate(148.727356, 185.440597) rotate(149.950000) translate(-148.727356, -185.440597) " x="135.417356" y="182.960597" width="26.62" height="4.96" rx="2.48"></rect>
                <rect id="Rectangle-path" fill="#ADADAD" transform="translate(149.695059, 198.149447) rotate(-30.050000) translate(-149.695059, -198.149447) " x="149.140059" y="193.184447" width="1.11" height="9.93"></rect>
                <rect id="Rectangle-path" fill="#ADADAD" transform="translate(154.692171, 195.267781) rotate(-30.050000) translate(-154.692171, -195.267781) " x="154.137171" y="190.302781" width="1.11" height="9.93"></rect>
                <rect id="Rectangle-path" fill="#ADADAD" transform="translate(152.197943, 196.711110) rotate(-30.050000) translate(-152.197943, -196.711110) " x="151.642943" y="191.74611" width="1.11" height="9.93"></rect>
                <path d="M132.22,196.72 L141.22,214.03 C142.472391,216.983276 142.403254,220.330949 141.03,223.23 C140.424542,224.560801 139.629633,225.796952 138.67,226.9 C137.349727,228.416361 135.784731,229.700807 134.04,230.7 C124.92,236.03 116.49,240.97 114.59,229.43 C114.24784,227.320583 114.360351,225.162404 114.92,223.1 C115.16,222.23 115.4,221.39 115.65,220.62 C116.504864,217.879378 116.140624,214.903537 114.65,212.45 L112.45,208.76 L132.22,196.72 Z" id="Shape" fill="#DEDFE0"></path>
                <rect id="Rectangle-path" fill="#D3D3D3" transform="translate(121.098501, 201.397388) rotate(-30.050000) translate(-121.098501, -201.397388) " x="107.788501" y="198.917388" width="26.62" height="4.96" rx="2.48"></rect>
                <rect id="Rectangle-path" fill="#ADADAD" transform="translate(131.652274, 208.600176) rotate(149.950000) translate(-131.652274, -208.600176) " x="131.097274" y="203.635176" width="1.11" height="9.93"></rect>
                <rect id="Rectangle-path" fill="#ADADAD" transform="translate(126.664378, 211.479855) rotate(149.950000) translate(-126.664378, -211.479855) " x="126.109378" y="206.514855" width="1.11" height="9.93"></rect>
                <rect id="Rectangle-path" fill="#ADADAD" transform="translate(128.778950, 209.092050) rotate(150.113473) translate(-128.778950, -209.092050) " x="128.222039" y="204.10995" width="1.11382292" height="9.96419961"></rect>
                <rect id="Rectangle-path" fill="#C6C6C6" transform="translate(12.638754, 76.637683) rotate(149.950000) translate(-12.638754, -76.637683) " x="9.70375356" y="76.1376829" width="5.87" height="1"></rect>
                <path d="M21.6786709,64.7851556 L21.6786709,83.1080444 C17.6331068,83.1080444 14.3535291,79.8284667 14.3535291,75.7829026 L14.3535291,72.1203318 C14.3535291,68.0747677 17.6331068,64.7951901 21.6786709,64.7951901 L21.6786709,64.7851556 Z" id="ear-3" fill="#C6C6C6" transform="translate(18.016100, 73.946600) rotate(-29.886527) translate(-18.016100, -73.946600) "></path>
                <g id="Group" transform="translate(6.000000, 18.000000)" fill="#B2B2B2">
                    <ellipse id="circle" transform="translate(38.633211, 39.979889) rotate(-18.180000) translate(-38.633211, -39.979889) " cx="38.6332107" cy="39.9798891" rx="29.49" ry="31.36"></ellipse>
                    <ellipse id="Oval" transform="translate(8.894234, 57.548292) rotate(-30.050000) translate(-8.894234, -57.548292) " cx="8.89423362" cy="57.5482924" rx="1" ry="1.8"></ellipse>
                </g>
                <rect id="Rectangle-path" fill="#C6C6C6" transform="translate(94.494139, 29.602864) rotate(-30.050000) translate(-94.494139, -29.602864) " x="91.5591389" y="29.1028639" width="5.87" height="1"></rect>
                <path d="M92.7605956,23.4344528 L92.7605956,41.6944528 C88.7289169,41.6944528 85.4605956,38.4261315 85.4605956,34.3944528 L85.4605956,30.7344528 C85.4605956,26.7027741 88.7289169,23.4344528 92.7605956,23.4344528 Z" id="ear-4" fill="#C6C6C6" transform="translate(89.110596, 32.564453) rotate(149.950000) translate(-89.110596, -32.564453) "></path>
                <g id="Group" transform="translate(22.000000, 6.000000)" fill="#B2B2B2">
                    <ellipse id="circle-2" transform="translate(40.874691, 42.427274) rotate(-30.050000) translate(-40.874691, -42.427274) " cx="40.8746907" cy="42.427274" rx="29.25" ry="31.04"></ellipse>
                    <ellipse id="Oval" transform="translate(70.252284, 24.689531) rotate(-30.050000) translate(-70.252284, -24.689531) " cx="70.2522843" cy="24.6895314" rx="1" ry="1.8"></ellipse>
                </g>
                <circle id="_Ellipse_2" fill="#E8E8E8" transform="translate(53.841600, 53.784600) rotate(-29.886527) translate(-53.841600, -53.784600) " cx="53.8416" cy="53.7846" r="38.913561"></circle>
                <g id="Group" transform="translate(4.000000, 0.000000)">
                    <ellipse id="_Ellipse_3" fill="#F2F2F2" transform="translate(51.896400, 52.598000) rotate(-29.886527) translate(-51.896400, -52.598000) " cx="51.8964" cy="52.598" rx="36.7561563" ry="38.913561"></ellipse>
                    <ellipse id="_Ellipse_4" fill="#FFFFFF" transform="translate(51.714954, 52.240577) rotate(-30.050000) translate(-51.714954, -52.240577) " cx="51.714954" cy="52.2405769" rx="36.55" ry="38.78"></ellipse>
                    <ellipse id="_Ellipse_5" fill="#F2F2F2" transform="translate(50.353350, 53.025420) rotate(-30.050000) translate(-50.353350, -53.025420) " cx="50.3533502" cy="53.0254195" rx="34.97" ry="38.78"></ellipse>
                </g>
                <path d="M78,39.49 C85.78,52.94 81.6,68.59 68.15,76.37 C54.7,84.15 37.1,81.12 29.32,67.67 C21.54,54.22 27.69,37.43 41.14,29.67 C54.59,21.91 70.25,26 78,39.49 Z" id="purple" fill="#FFFFFF"></path>
                <path d="M77.61,38.72 C85.14,51.72 81.87,66.42 69.91,73.34 C57.4363544,80.4748881 41.5419498,76.1893017 34.3458283,63.7508814 C27.1497069,51.3124612 31.3571057,35.3971809 43.76,28.14 C55.72,21.22 70.08,25.71 77.61,38.72 Z" id="purple-2" fill="#F1F1F1"></path>
                <g id="outline" transform="translate(20.000000, 20.000000)" fill="#D8D8D8">
                    <path d="M35.16,5.75 C44.29,5.75 52.88,10.59 58.03,19.49 C65.81,32.94 61.63,48.59 48.18,56.37 C43.4436299,59.1202193 38.0669244,60.57562 32.59,60.59 C23.25,60.59 14.28,56.25 9.32,47.67 C1.54,34.22 7.69,17.43 21.14,9.67 C25.3817391,7.16088266 30.211865,5.81879767 35.14,5.78 L35.16,5.75 Z M35.14,0.78 C29.3310552,0.828616971 23.6371385,2.40470414 18.63,5.35 C2.29,14.78 -3.84,34.9 5,50.17 C10.58,59.82 20.9,65.59 32.6,65.59 C38.9513522,65.5747666 45.1868462,63.8882862 50.68,60.7 C58.1306988,56.5376831 63.6100104,49.5715413 65.9,41.35 C68.0124834,33.0859266 66.7381616,24.3204642 62.36,17 C56.48,6.83 46.36,0.76 35.16,0.76 L35.14,0.78 Z" id="Shape"></path>
                </g>
                <path d="M50.075293,80.5589978 L94.275293,80.5589978 C96.3173486,80.551021 98.2785025,81.3566387 99.7252769,82.7977836 C101.172051,84.2389285 101.985309,86.1969267 101.985293,88.2389978 L101.985293,89.9889978 L42.395293,89.9889978 L42.395293,88.2389978 C42.395293,83.997451 45.8337462,80.5589978 50.075293,80.5589978 Z" id="Shape" fill="#C6C6C6" transform="translate(72.190293, 85.273968) rotate(-30.050000) translate(-72.190293, -85.273968) "></path>
                <path d="M45.3728395,79.4042802 L97.6428395,79.4042802 C99.6354177,79.4095524 101.255551,81.0118819 101.28284,83.0042802 L101.28284,88.8342802 L41.7228395,88.8342802 L41.7228395,83.0042802 C41.7501885,81.007994 43.3763661,79.4040928 45.3728395,79.4042802 Z" id="Shape" fill="#D8D8D8" transform="translate(71.502840, 84.119280) rotate(-30.050000) translate(-71.502840, -84.119280) "></path>
                <circle id="Oval" fill="#B5B5B5" transform="translate(50.693094, 96.433392) rotate(-30.050000) translate(-50.693094, -96.433392) " cx="50.6930942" cy="96.4333922" r="2.26"></circle>
                <circle id="Oval" fill="#B5B5B5" transform="translate(57.658203, 92.404803) rotate(-30.050000) translate(-57.658203, -92.404803) " cx="57.6582028" cy="92.4048033" r="2.26"></circle>
                <circle id="Oval" fill="#B5B5B5" transform="translate(64.624656, 88.381222) rotate(-30.050000) translate(-64.624656, -88.381222) " cx="64.6246556" cy="88.381222" r="2.26"></circle>
                <circle id="Oval" fill="#B5B5B5" transform="translate(71.589764, 84.342633) rotate(-30.050000) translate(-71.589764, -84.342633) " cx="71.5897642" cy="84.3426331" r="2.26"></circle>
                <circle id="Oval" fill="#B5B5B5" transform="translate(78.546217, 80.319052) rotate(-30.050000) translate(-78.546217, -80.319052) " cx="78.5462169" cy="80.3190518" r="2.26"></circle>
                <circle id="Oval" fill="#B5B5B5" transform="translate(85.521326, 76.290463) rotate(-30.050000) translate(-85.521326, -76.290463) " cx="85.5213256" cy="76.2904629" r="2.26"></circle>
                <circle id="Oval" fill="#B5B5B5" transform="translate(92.477778, 72.256882) rotate(-30.050000) translate(-92.477778, -72.256882) " cx="92.4777783" cy="72.2568816" r="2.26"></circle>
            </g>
        </g>
    </g>
</svg>